<?xml version="1.0" encoding="UTF-8"?>
<svg width="75px" height="75px" viewBox="0 0 75 75" version="1.1" xmlns="http://www.w3.org/2000/svg" xmlns:xlink="http://www.w3.org/1999/xlink">
    <!-- Generator: Sketch 46.1 (44463) - http://www.bohemiancoding.com/sketch -->
    <title>Icon/blue/ResolutionCenter</title>
    <desc>Created with Sketch.</desc>
    <defs></defs>
    <g id="Symbols" stroke="none" stroke-width="1" fill="none" fill-rule="evenodd">
        <g id="Icon/blue/ResolutionCenter">
            <g id="Disputes">
                <rect id="Rectangle-3" fill-opacity="0" fill="#D8D8D8" x="0" y="0" width="75" height="75"></rect>
                <g transform="translate(11.000000, 10.000000)" stroke="#0070BA" stroke-width="1.4" stroke-linecap="round" stroke-linejoin="round">
                    <path d="M32.5746857,22.0403047 L36.1892571,22.0403047 L36.1892571,30.4467109 L45.5561143,22.4029609 C50.2498286,21.4911641 53.8155429,16.9983516 53.8155429,11.5885859 C53.8155429,5.52053906 49.3275429,0.601476562 43.7929714,0.601476562 L33.6478286,0.601476562 C28.7261143,0.601476562 24.6324,4.49014844 23.7855429,9.61803906" id="Stroke-1"></path>
                    <path d="M17.7739714,37.5476406 C22.3691143,37.5476406 25.4214,31.4202969 25.8679714,29.8665469 C25.9536857,29.5331094 26.4354,29.5623281 26.7336857,28.9727969 C28.7222571,25.0815469 26.4156857,24.3880312 26.4156857,24.3880312 C26.4156857,24.3880312 26.5425429,22.0608438 25.9639714,19.8771719 C25.9639714,19.8771719 24.5085429,14.4545156 17.7739714,14.4545156 C11.0411143,14.4545156 9.58397143,19.8771719 9.58397143,19.8771719 C9.00625714,22.0608438 9.13225714,24.3880312 9.13225714,24.3880312 C9.13225714,24.3880312 6.8274,25.3299062 8.78425714,28.9556094 C9.07225714,29.491 9.49568571,29.4205312 9.68168571,29.8665469 C10.1265429,31.4202969 13.1788286,37.5476406 17.7739714,37.5476406 Z" id="Stroke-3"></path>
                    <path d="M23.0038286,36.2728437 C23.0038286,36.2728437 24.8389714,37.8687031 28.1098286,39.1079219 C33.7686857,41.2537812 35.6149714,46.1393281 35.9749714,52.0870625 C36.0581143,53.4457344 34.9549714,54.8800313 33.5972571,54.8800313 L18.3701143,54.8800313 L2.9784,54.8800313 C1.59668571,54.8800313 0.521828571,53.4079219 0.604114286,52.0269063 C0.9624,45.9201875 2.80782857,41.4058906 8.46925714,39.2574531 C11.7401143,38.0165156 13.4561143,36.34675 13.4561143,36.34675" id="Stroke-5"></path>
                    <path d="M35.2365429,8.75522656 C35.2365429,7.95600781 35.4979714,7.22038281 35.9376857,6.62483594 C36.6191143,5.70702344 37.7282571,5.12780469 38.9685429,5.18538281 C40.7951143,5.26960156 42.2779714,6.75632031 42.3619714,8.58678906 C42.4262571,10.0013203 41.6694,11.2456953 40.5294,11.8816328 C39.4528286,12.4814766 38.8005429,13.6330391 38.8005429,14.8662422 L38.8005429,15.1335078" id="Stroke-7"></path>
                    <path d="M39.0552,17.3053203 C39.0552,17.4453984 38.9420571,17.5614141 38.8006286,17.5614141 C38.6600571,17.5614141 38.5469143,17.4453984 38.5469143,17.3053203 C38.5469143,17.1643828 38.6600571,17.0500859 38.8006286,17.0500859 C38.9420571,17.0500859 39.0552,17.1643828 39.0552,17.3053203 Z" id="Stroke-9"></path>
                </g>
            </g>
        </g>
    </g>
</svg>